<svg width="99" height="20" viewBox="0 0 99 20" fill="none" xmlns="http://www.w3.org/2000/svg">
<path d="M88.0484 10.9195V9.52745H89.8364C90.2124 9.52745 90.5004 9.43145 90.7004 9.23945C90.9084 9.04745 91.0124 8.78745 91.0124 8.45945C91.0124 8.15545 90.9124 7.90345 90.7124 7.70345C90.5124 7.50345 90.2244 7.40345 89.8484 7.40345H88.0484V5.93945H90.0644C90.6244 5.93945 91.1164 6.04745 91.5404 6.26345C91.9644 6.47145 92.2964 6.76345 92.5364 7.13945C92.7764 7.51545 92.8964 7.94745 92.8964 8.43545C92.8964 8.93145 92.7764 9.36745 92.5364 9.74345C92.2964 10.1115 91.9604 10.3995 91.5284 10.6075C91.0964 10.8155 90.5884 10.9195 90.0044 10.9195H88.0484ZM86.6084 14.4115V5.93945H88.4924V14.4115H86.6084ZM91.2164 14.4115L88.5764 10.7635L90.3044 10.2955L93.4484 14.4115H91.2164Z" fill="black"/>
<path d="M79.2256 14.4115V5.93945H81.1096V14.4115H79.2256ZM80.6656 14.4115V12.7795H85.3096V14.4115H80.6656ZM80.6656 10.8715V9.29945H84.8896V10.8715H80.6656ZM80.6656 7.55945V5.93945H85.2496V7.55945H80.6656Z" fill="black"/>
<path d="M70.3662 14.4115V5.93945H71.6862L72.2502 7.63145V14.4115H70.3662ZM76.2102 14.4115L71.2182 8.01545L71.6862 5.93945L76.6782 12.3355L76.2102 14.4115ZM76.2102 14.4115L75.7062 12.7195V5.93945H77.5902V14.4115H76.2102Z" fill="black"/>
<path d="M64.1421 10.9195V9.52745H65.9301C66.3061 9.52745 66.5941 9.43145 66.7941 9.23945C67.0021 9.04745 67.1061 8.78745 67.1061 8.45945C67.1061 8.15545 67.0061 7.90345 66.8061 7.70345C66.6061 7.50345 66.3181 7.40345 65.9421 7.40345H64.1421V5.93945H66.1581C66.7181 5.93945 67.2101 6.04745 67.6341 6.26345C68.0581 6.47145 68.3901 6.76345 68.6301 7.13945C68.8701 7.51545 68.9901 7.94745 68.9901 8.43545C68.9901 8.93145 68.8701 9.36745 68.6301 9.74345C68.3901 10.1115 68.0541 10.3995 67.6221 10.6075C67.1901 10.8155 66.6821 10.9195 66.0981 10.9195H64.1421ZM62.7021 14.4115V5.93945H64.5861V14.4115H62.7021ZM67.3101 14.4115L64.6701 10.7635L66.3981 10.2955L69.5421 14.4115H67.3101Z" fill="black"/>
<path d="M53.418 14.4115L56.778 5.93945H58.482L61.806 14.4115H59.814L57.27 7.37945H57.954L55.374 14.4115H53.418ZM55.326 12.8755V11.3395H59.946V12.8755H55.326Z" fill="black"/>
<path d="M46.6709 14.4115V5.93945H48.5549V14.4115H46.6709ZM48.1109 14.4115V12.7795H52.7549V14.4115H48.1109ZM48.1109 10.8715V9.29945H52.3349V10.8715H48.1109ZM48.1109 7.55945V5.93945H52.6949V7.55945H48.1109Z" fill="black"/>
<path d="M39.9443 14.4115V5.93945H41.8283V14.4115H39.9443ZM41.3963 14.4115V12.7555H45.5843V14.4115H41.3963Z" fill="black"/>
<path d="M28.7998 14.4115V5.93945H30.1198L30.6838 7.63145V14.4115H28.7998ZM34.6438 14.4115L29.6518 8.01545L30.1198 5.93945L35.1118 12.3355L34.6438 14.4115ZM34.6438 14.4115L34.1398 12.7195V5.93945H36.0238V14.4115H34.6438Z" fill="black"/>
<path d="M25.2842 14.4115V5.93945H27.1682V14.4115H25.2842Z" fill="black"/>
<path d="M15.3729 14.4115L12.6489 5.93945H14.5209L16.5129 12.4555H15.7809L17.7249 5.93945H19.2009L21.1449 12.4555H20.4249L22.4049 5.93945H24.2649L21.5409 14.4115H20.0649L18.1089 7.89545H18.8049L16.8489 14.4115H15.3729Z" fill="black"/>
<path d="M7.95425 14.4115V6.05945H9.83825V14.4115H7.95425ZM5.30225 7.58345V5.93945H12.4902V7.58345H5.30225Z" fill="black"/>
</svg>
